<?xml version="1.0" encoding="utf-8"?>
<!-- Generator: Adobe Illustrator 27.5.0, SVG Export Plug-In . SVG Version: 6.00 Build 0)  -->
<svg version="1.1" xmlns="http://www.w3.org/2000/svg" xmlns:xlink="http://www.w3.org/1999/xlink" x="0px" y="0px"
	 viewBox="350 350 3110 3110" style="enable-background:new 350 350 3110 3110;" xml:space="preserve">
<g id="Illustration">
	<g>
		<linearGradient id="SVGID_1_" gradientUnits="userSpaceOnUse" x1="3608.7446" y1="4068.9263" x2="1154.9102" y2="1021.4179">
			<stop  offset="0" style="stop-color:#DAE3FE"/>
			<stop  offset="1" style="stop-color:#E9EFFD"/>
		</linearGradient>
		<path class="light-color" style="opacity:0.3;" d="M2933.679,2867.099c-56.364,59.337-109.694,97.603-151.83,127.836
			c-495.295,355.38-1081.361,251.788-1205.917,226.49c-183.929-37.357-539.461-109.567-796.504-411.845
			C390.545,2352.26,451.1,1631.765,752.745,1156.157c55.176-86.997,346.629-569.85,939.007-647.285
			c358.501-46.862,776.397,47.654,1079.027,301.197C3406.025,1342.279,3360.802,2417.438,2933.679,2867.099z"/>

		<g>
			<g>
				<g>
					
						<linearGradient id="SVGID_00000178911230713349614540000006326355878182838441_" gradientUnits="userSpaceOnUse" x1="-769.4327" y1="3952.4429" x2="2393.3398" y2="1386.9359">
						<stop  offset="0" style="stop-color:#09005D"/>
						<stop  offset="1" style="stop-color:#1A0F91"/>
					</linearGradient>
					<path class="darker-color" d="M1127.063,510.963
						c-68.36,5.945-120.772,63.196-120.967,131.815c-1.19,419.629-3.154,1867.04,24.197,2379.343
						c2.898,54.274,47.393,96.91,101.741,97.495c268.807,2.894,1042.022,8.211,1480.979-19.867
						c91.428-5.848,162.573-81.571,162.463-173.186c-0.533-440.415-7.57-1679.015-67.899-2245.164
						c-7.228-67.833-61.756-120.781-129.767-126.08C2284.635,532.476,1506.104,477.998,1127.063,510.963z"/>
					
						<linearGradient id="SVGID_00000096019019411735251110000006192114077795777697_" gradientUnits="userSpaceOnUse" x1="647.7331" y1="3488.0454" x2="2039.082" y2="1499.4349">
						<stop  offset="0" style="stop-color:#FEBBBA"/>
						<stop  offset="1" style="stop-color:#FF928E"/>
					</linearGradient>
					<path style="fill:#c5c5c5;" d="M1113.999,752.749
						c-5.279,358.955-20.309,1553.05,5.929,1993.769c3.835,64.417,53.873,115.274,115.658,117.427
						c254.388,8.865,906.724,26.021,1278.436-14.88c66.933-7.365,118.089-65.381,119.872-135.631
						c9.298-366.313,34.413-1478.474,8.913-1914.265c-4.068-69.521-57.182-124.993-123.761-129.48
						c-275.442-18.56-982.743-61.362-1298.834-35.039C1160.874,639.592,1114.913,690.605,1113.999,752.749z"/>
					
						<linearGradient id="SVGID_00000183236303286212898570000012808584091980840865_" gradientUnits="userSpaceOnUse" x1="2123.9497" y1="-558.6753" x2="1920.3375" y2="357.5798">
						<stop  offset="0" style="stop-color:#4042E2"/>
						<stop  offset="1" style="stop-color:#4F52FF"/>
					</linearGradient>
					<path class="light-color" d="M1728.63,573.375
						c0.218,9.917,8.126,17.926,18.041,18.228c48.948,1.487,186.838,5.708,248.47,7.929c12.152,0.438,21.438-10.681,18.874-22.567
						c-0.211-0.375-1.79-15.615-17.354-16.697c-41.691-2.899-167.47-10.715-250.588-5.919
						C1729.005,555.333,1728.077,574.744,1728.63,573.375z"/>
				</g>
			</g>
			<g>
				<circle style="opacity:0.8;fill:#FFFFFF;" cx="1529.104" cy="1222.65" r="333.64"/>
				<g>
					<defs>
						<circle id="SVGID_00000155120455523612222090000011921308674310360479_" cx="1529.104" cy="1222.65" r="297.133"/>
					</defs>
					<clipPath id="SVGID_00000130610484049877131050000014991942677373285544_">
						<use xlink:href="#SVGID_00000155120455523612222090000011921308674310360479_"  style="overflow:visible;"/>
					</clipPath>
					
						<linearGradient id="SVGID_00000068658236030078848340000012799897487633186724_" gradientUnits="userSpaceOnUse" x1="1240.4829" y1="2148.5271" x2="1925.9784" y2="-220.1579">
						<stop  offset="0" style="stop-color:#FE7062"/>
						<stop  offset="1" style="stop-color:#FF928E"/>
					</linearGradient>
					
						<circle style="clip-path:url(#SVGID_00000130610484049877131050000014991942677373285544_);fill:#9d9d9d;" cx="1530.394" cy="1146.758" r="130.215"/>
					
						<linearGradient id="SVGID_00000181045221596361370530000010866533561336665514_" gradientUnits="userSpaceOnUse" x1="1342.7932" y1="2178.1355" x2="2028.2892" y2="-190.5511">
						<stop  offset="0" style="stop-color:#FE7062"/>
						<stop  offset="1" style="stop-color:#FF928E"/>
					</linearGradient>
					
						<path style="clip-path:url(#SVGID_00000130610484049877131050000014991942677373285544_);fill:#9d9d9d;" d="
						M1332.606,1537.782h414.848c25.434,0,40.673-32.866,26.977-57.946c-35.237-64.525-108.962-159.32-236.644-155.042
						c-123.059,4.122-195.998,89.748-232.665,151.157C1289.556,1502.021,1305.431,1537.782,1332.606,1537.782z"/>
				</g>
			</g>
			
				<linearGradient id="SVGID_00000067955229315239723130000001286817226320184214_" gradientUnits="userSpaceOnUse" x1="2085.2551" y1="1545.1315" x2="1695.9434" y2="3154.783">
				<stop  offset="0" style="stop-color:#E1473D"/>
				<stop  offset="1" style="stop-color:#E9605A"/>
			</linearGradient>
			<path style="fill:#808080;" d="M2033.735,2699.748h-414.997
				c-13.562,0-24.658-11.096-24.658-24.657v-118.037c0-13.562,11.096-24.657,24.658-24.657h414.997
				c13.562,0,24.657,11.096,24.657,24.657v118.037C2058.392,2688.652,2047.297,2699.748,2033.735,2699.748z"/>
			<g style="opacity:0.8;">
				<g style="opacity:0.8;">
					<path style="fill:#FFFFFF;" d="M2344.375,1926.416h-936.224c-7.439,0-13.525-6.086-13.525-13.524v-65.095
						c0-7.438,6.086-13.525,13.525-13.525h936.224c7.438,0,13.525,6.086,13.525,13.525v65.095
						C2357.899,1920.33,2351.813,1926.416,2344.375,1926.416z"/>
					<circle style="fill:#FFFFFF;" cx="1271.067" cy="1880.064" r="55.862"/>
				</g>
				<g style="opacity:0.8;">
					<path style="fill:#FFFFFF;" d="M2344.375,2099.324h-936.224c-7.439,0-13.525-6.086-13.525-13.524v-65.095
						c0-7.438,6.086-13.525,13.525-13.525h936.224c7.438,0,13.525,6.086,13.525,13.525v65.095
						C2357.899,2093.238,2351.813,2099.324,2344.375,2099.324z"/>
					
						<ellipse transform="matrix(0.1602 -0.9871 0.9871 0.1602 -958.9979 2978.7756)" style="fill:#FFFFFF;" cx="1271.067" cy="2052.971" rx="55.862" ry="55.862"/>
				</g>
				<g style="opacity:0.8;">
					<path style="fill:#FFFFFF;" d="M2344.375,2272.231h-936.224c-7.439,0-13.525-6.086-13.525-13.524v-65.095
						c0-7.438,6.086-13.524,13.525-13.524h936.224c7.438,0,13.525,6.086,13.525,13.524v65.095
						C2357.899,2266.145,2351.813,2272.231,2344.375,2272.231z"/>
					<circle style="fill:#FFFFFF;" cx="1271.067" cy="2225.879" r="55.862"/>
				</g>
				<g>
					<path style="opacity:0.8;fill:#FFFFFF;" d="M2344.375,2445.139h-936.224c-7.439,0-13.525-6.086-13.525-13.524v-65.095
						c0-7.438,6.086-13.524,13.525-13.524h936.224c7.438,0,13.525,6.086,13.525,13.524v65.095
						C2357.899,2439.053,2351.813,2445.139,2344.375,2445.139z"/>
					<circle style="opacity:0.8;fill:#FFFFFF;" cx="1271.067" cy="2398.786" r="55.862"/>
				</g>
			</g>
			<path style="opacity:0.8;fill:#FFFFFF;" d="M1963.743,1746.328h-734.347c-6.6,0-12-5.4-12-12v-68.144c0-6.6,5.4-12,12-12h734.347
				c6.6,0,12,5.4,12,12v68.144C1975.743,1740.928,1970.343,1746.328,1963.743,1746.328z"/>
		</g>
		<g>
			<g>
				
					<linearGradient id="SVGID_00000059299978572802389290000009224489740241315490_" gradientUnits="userSpaceOnUse" x1="3704.6865" y1="-1005.0889" x2="3114.2102" y2="-129.5563">
					<stop  offset="0" style="stop-color:#4042E2"/>
					<stop  offset="1" style="stop-color:#4F52FF"/>
				</linearGradient>
				<path class="main-color" d="M2811.604,817.29
					c-1.972-30.484-20.382-57.488-47.975-70.594l-357.508-169.793c-22.895-10.874-49.467-10.874-72.362,0l-357.508,169.793
					c-27.594,13.105-46.003,40.11-47.975,70.594c-33.534,518.356,298.829,707.223,407.781,754.933
					c21.607,9.462,46.157,9.462,67.765,0C2512.775,1524.513,2845.138,1335.645,2811.604,817.29z"/>
				<path class="lighter-color" d="M2261.8,648.452c-1.906,0-3.732-1.07-4.6-2.906c-1.206-2.539-0.126-5.578,2.413-6.781
					l84.474-40.119c2.542-1.21,5.578-0.129,6.781,2.413c1.206,2.539,0.126,5.577-2.413,6.78l-84.474,40.119
					C2263.274,648.293,2262.532,648.452,2261.8,648.452z"/>
				<path class="lighter-color" d="M1955.616,928.233c-2.731,0-4.991-2.167-5.084-4.918c-1.13-33.717-0.537-68.865,1.763-104.47
					c1.405-21.713,14.542-41.027,34.283-50.406l240.497-114.22c2.542-1.206,5.577-0.129,6.78,2.413
					c1.206,2.538,0.126,5.577-2.412,6.78l-240.497,114.22c-16.408,7.794-27.324,23.838-28.49,41.869
					c-2.28,35.274-2.87,70.088-1.75,103.47c0.096,2.81-2.108,5.167-4.915,5.259C1955.732,928.233,1955.672,928.233,1955.616,928.233
					z"/>
				
					<linearGradient id="SVGID_00000031197137847083770470000013538444292106914977_" gradientUnits="userSpaceOnUse" x1="3203.4263" y1="-641.683" x2="2864.073" y2="9.8753">
					<stop  offset="0" style="stop-color:#09005D"/>
					<stop  offset="1" style="stop-color:#1A0F91"/>
				</linearGradient>
				<path class="darker-color" d="M2725.152,837.521
					c-0.395-7.728-4.995-14.626-11.985-17.946l-334.208-158.729c-5.707-2.71-12.329-2.71-18.035,0l-334.208,158.729
					c-6.99,3.32-11.59,10.218-11.985,17.946c-9.883,193.362,34.78,354.698,132.843,479.744
					c74.763,95.336,162.223,146.426,213.473,170.261c5.646,2.626,12.144,2.626,17.79,0
					c51.249-23.835,138.709-74.926,213.473-170.261C2690.371,1192.22,2735.035,1030.882,2725.152,837.521z"/>
			</g>
			
				<linearGradient id="SVGID_00000110461633728515725020000005668999715936775340_" gradientUnits="userSpaceOnUse" x1="2248.5737" y1="1426.033" x2="2391.1023" y2="794.8369">
				<stop  offset="0" style="stop-color:#E1473D"/>
				<stop  offset="1" style="stop-color:#E9605A"/>
			</linearGradient>
			<path style="fill:#ffffff;" d="M2157.708,1049.459L2157.708,1049.459
				c27.632-17.119,63.94-8.178,80.455,19.823l77.686,131.689c7.78,13.184,27.257,11.868,33.19-2.24l174.78-415.65
				c8.72-20.736,39.431-14.535,39.635,7.953c1.15,125.826-26.456,365.709-222.596,570.679c0,0-111.789-40.378-205.701-234.073
				C2121.594,1099.661,2131.277,1065.84,2157.708,1049.459z"/>
		</g>
		<g>
			
				<linearGradient id="SVGID_00000177468874847389363690000013317745982948233643_" gradientUnits="userSpaceOnUse" x1="-2103.5349" y1="3078.1323" x2="-2721.5349" y2="3750.3438" gradientTransform="matrix(-1 0 0 1 571.1675 0)">
				<stop  offset="0" style="stop-color:#4042E2"/>
				<stop  offset="1" style="stop-color:#4F52FF"/>
			</linearGradient>
			<path style="fill:black;" d="M2870.053,3128.208
				c0,0,6.4,36.232,9.538,72.098c1.227,14.018-9.58,26.188-23.639,26.774c-47.763,1.989-149.93,5.858-186.592,4.222
				c-5.511-0.246-9.115-5.888-7.075-11.014l0,0c1.709-4.295,5.006-7.768,9.206-9.698l168.761-77.563L2870.053,3128.208z"/>
			
				<linearGradient id="SVGID_00000140731698325948225610000017995372191635724720_" gradientUnits="userSpaceOnUse" x1="-2304.1284" y1="3128.0586" x2="-2249.2349" y2="3128.0586" gradientTransform="matrix(-1 0 0 1 571.1675 0)">
				<stop  offset="0" style="stop-color:#FF928E"/>
				<stop  offset="1" style="stop-color:#FEB3B1"/>
			</linearGradient>
			<path style="fill:url(#SVGID_00000140731698325948225610000017995372191635724720_);" d="M2875.296,3106.919l-5.142,43.339
				c0,0-29.563,13.762-49.752-1.735l12.243-48.297L2875.296,3106.919z"/>
			
				<linearGradient id="SVGID_00000049905578559231015410000016378072369711686078_" gradientUnits="userSpaceOnUse" x1="-2434.2944" y1="2708.3225" x2="-2252.7883" y2="2708.3225" gradientTransform="matrix(-1 0 0 1 571.1675 0)">
				<stop  offset="0" style="stop-color:#09005D"/>
				<stop  offset="1" style="stop-color:#1A0F91"/>
			</linearGradient>
			<path style="fill:#272727;" d="M2871.431,2292.137
				c2.221,11.318,11.922,564.778-47.239,812.802c-0.966,4.047,1.086,8.219,4.938,9.792c9.074,3.708,26.863,9.076,48.181,9.792
				c6.602,0.222,12.521-4.069,14.384-10.407c16.911-57.545,97.945-345.865,108.516-621.287c11.812-307.758,0-10.479,0-10.479
				l-6.928-190.237L2871.431,2292.137z"/>
			
				<linearGradient id="SVGID_00000049926661122931414880000012290291265218238142_" gradientUnits="userSpaceOnUse" x1="-2242.1729" y1="2950.6746" x2="-2860.1738" y2="3622.8867" gradientTransform="matrix(-1 0 0 1 571.1675 0)">
				<stop  offset="0" style="stop-color:#4042E2"/>
				<stop  offset="1" style="stop-color:#4F52FF"/>
			</linearGradient>
			<path style="fill:black;" d="M3064.185,3147.111
				c0,0,10.188,18.291,20.051,66.896c1.781,8.778-4.352,17.179-13.265,18.055c-15.771,1.551-40.051,3.545-59.5,3.411
				c-8.966-0.062-15.963-7.868-14.882-16.769c2.154-17.741,8.865-46.848,29.598-69.535L3064.185,3147.111z"/>
			
				<linearGradient id="SVGID_00000173882243384640273960000005755923553452328638_" gradientUnits="userSpaceOnUse" x1="-2501.9651" y1="3125.2434" x2="-2454.5696" y2="3125.2434" gradientTransform="matrix(-1 0 0 1 571.1675 0)">
				<stop  offset="0" style="stop-color:#FF928E"/>
				<stop  offset="1" style="stop-color:#FEB3B1"/>
			</linearGradient>
			<path style="fill:url(#SVGID_00000173882243384640273960000005755923553452328638_);" d="M3073.133,3091.367l-12.015,65.54
				c0,0-11.88,8.836-35.381,2.43l5.735-70.517L3073.133,3091.367z"/>
			
				<linearGradient id="SVGID_00000109734612571368836200000008492901982855876768_" gradientUnits="userSpaceOnUse" x1="-2553.0505" y1="2702.3835" x2="-2295.3701" y2="2702.3835" gradientTransform="matrix(-1 0 0 1 571.1675 0)">
				<stop  offset="0" style="stop-color:#09005D"/>
				<stop  offset="1" style="stop-color:#1A0F91"/>
			</linearGradient>
			<path style="fill:#272727;" d="M3105.592,2309.121
				c48.385,292.01-10.496,721.728-30.354,805.834c-1.216,5.149-5.371,9.094-10.591,9.959c-8.864,1.469-23.458,2.668-37.845-1.51
				c-4.957-1.44-8.44-5.911-8.642-11.069c-2.664-67.998,2.131-485.434-42.953-650.407c-2.285-8.36-7.39-15.652-14.455-20.674
				l-87.505-62.209l-6.709-100.555L3105.592,2309.121z"/>
			<g>
				
					<linearGradient id="SVGID_00000048490776014928134440000006077304713321893261_" gradientUnits="userSpaceOnUse" x1="2948.8174" y1="1830.058" x2="2653.55" y2="2624.2249">
					<stop  offset="0" style="stop-color:#4042E2"/>
					<stop  offset="1" style="stop-color:#4F52FF"/>
				</linearGradient>
				<path style="fill:#9d9d9d;" d="M2797.277,1755.817
					c145.003-2.396,304.996,38.074,304.996,38.074c43.222,252.2,7.558,543.095,7.558,543.095
					c-112.258,29.439-238.89-17.999-238.89-17.999c-18.658-105.413-105.711-402.082-105.711-402.082
					c-70.848-8.793-129.211-29.233-177.273-56.258c36.661-42.496,53.944-96.57,61.451-128.534
					C2700.676,1748.046,2752.553,1756.556,2797.277,1755.817z"/>
				
					<linearGradient id="SVGID_00000055694940977482298680000001511179888351297929_" gradientUnits="userSpaceOnUse" x1="-2471.8901" y1="1695.9471" x2="-2191.4473" y2="1695.9471" gradientTransform="matrix(-1 0 0 1 571.1675 0)">
					<stop  offset="0" style="stop-color:#FF928E"/>
					<stop  offset="1" style="stop-color:#FEB3B1"/>
				</linearGradient>
				<path style="fill:url(#SVGID_00000055694940977482298680000001511179888351297929_);" d="M2368.966,1542.237
					c14.244-17.205,32.272-9.066,32.272-9.066c21.338,90.136,133.224,163.219,248.171,198.943
					c-7.507,31.964-24.79,86.038-61.451,128.534C2397.193,1753.388,2368.966,1542.237,2368.966,1542.237z"/>
			</g>
			<g>
				
					<linearGradient id="SVGID_00000163791594984469861030000004369204292106135717_" gradientUnits="userSpaceOnUse" x1="2503.9951" y1="1253.9188" x2="2375.0405" y2="1437.1699">
					<stop  offset="0" style="stop-color:#FF928E"/>
					<stop  offset="1" style="stop-color:#FEB3B1"/>
				</linearGradient>
				<path style="fill:url(#SVGID_00000163791594984469861030000004369204292106135717_);" d="M2372.423,1546.612
					c-1.49,4.738,15.769,11.953,25.932-7.426c0.355-9.288,6.003-49.077,0.454-56.643c-29.558-40.298-86.865-90.813-86.865-90.813
					c-9.685,9.557-1.706,18.945-1.706,18.945l27.8,28.96c-5.814,10.508-12.907,19.377-16.231,32.088
					c-2.518,9.625-0.978,19.911,3.884,28.671c4.88,8.792,11.537,20.22,17.831,29.163
					C2355.435,1546.484,2372.423,1546.612,2372.423,1546.612z"/>
				
					<linearGradient id="SVGID_00000058554790151968143840000008919766782449232567_" gradientUnits="userSpaceOnUse" x1="-1799.1442" y1="1506.3455" x2="-1720.6229" y2="1385.6188" gradientTransform="matrix(-1 0 0 1 571.1675 0)">
					<stop  offset="0" style="stop-color:#FF928E"/>
					<stop  offset="1" style="stop-color:#FEB3B1"/>
				</linearGradient>
				<path style="fill:url(#SVGID_00000058554790151968143840000008919766782449232567_);" d="M2350.198,1458.425l25.333,21.476
					l7.954,21.382l-22.587,25.057c0,0-7.594-42.426-13.239-51.609C2342.014,1465.551,2344.941,1461.111,2350.198,1458.425z"/>
			</g>
			
				<linearGradient id="SVGID_00000142133769630549698570000010513005731853208457_" gradientUnits="userSpaceOnUse" x1="3173.6892" y1="1913.6641" x2="2878.4221" y2="2707.8291">
				<stop  offset="0" style="stop-color:#4042E2"/>
				<stop  offset="1" style="stop-color:#4F52FF"/>
			</linearGradient>
			<path style="fill:#9d9d9d;" d="M3046.656,1934.296l55.617-140.405
				c0,0,135.44,92.026,157.714,208.705c-25.591,1.885-72.159,8.541-117.74,31.557
				C3132.23,1979.058,3046.656,1934.296,3046.656,1934.296z"/>
			
				<linearGradient id="SVGID_00000165223258824028249080000009240682513223619982_" gradientUnits="userSpaceOnUse" x1="-2691.9072" y1="2093.1868" x2="-2337.0046" y2="2093.1868" gradientTransform="matrix(-1 0 0 1 571.1675 0)">
				<stop  offset="0" style="stop-color:#FF928E"/>
				<stop  offset="1" style="stop-color:#FEB3B1"/>
			</linearGradient>
			<path style="fill:url(#SVGID_00000165223258824028249080000009240682513223619982_);" d="M2928.296,2066.412
				c0,0,152.065,85.94,203.375,12.557c10.653-15.237,13.2-30.381,10.576-44.817c45.581-23.016,92.149-29.672,117.74-31.557
				c6.716,35.174,3.166,72.585-17.504,110.396c-89.876,164.409-334.311-9.086-334.311-9.086L2928.296,2066.412z"/>
			<g>
				<path class="light-color" d="M2946.567,2175.135l-82.991-289.825c-0.942-3.29-3.749-5.69-7.148-6.086
					c-15.037-1.754-58.607-6.679-108.914-10.934c-60.595-5.125-130.965-9.279-173.016-5.746c-5.978,0.502-9.591,6.825-6.932,12.203
					c23.912,48.378,122.273,245.168,171.53,309.634c1.632,2.136,4.155,3.384,6.843,3.359l192.555-1.791
					C2944.097,2185.897,2948.11,2180.522,2946.567,2175.135z"/>
				<path class="dark-color" d="M2738.906,1843.163l-60.17-10.026c-3.205-0.534-5.829,2.528-4.811,5.613l5.956,18.049
					c0.519,1.571,1.889,2.708,3.529,2.927l57.902,7.735c2.996,0.4,5.465-2.322,4.777-5.265l-3.687-15.758
					C2742.004,1844.741,2740.625,1843.449,2738.906,1843.163z"/>
				<path class="dark-color" d="M2783.96,1894.102l-4.957-25.819c-0.497-2.59-2.635-4.546-5.259-4.813l-121.53-12.332
					c-4.091-0.415-7.366,3.334-6.406,7.331l7.727,32.174c0.618,2.574,2.859,4.434,5.503,4.567l118.76,5.978
					C2781.664,1901.382,2784.69,1897.903,2783.96,1894.102z"/>
				
					<linearGradient id="SVGID_00000022557920910753531370000013892617677790683028_" gradientUnits="userSpaceOnUse" x1="-2363.3547" y1="2055.9753" x2="-2252.7883" y2="2055.9753" gradientTransform="matrix(-1 0 0 1 571.1675 0)">
					<stop  offset="0" style="stop-color:#FF928E"/>
					<stop  offset="1" style="stop-color:#FEB3B1"/>
				</linearGradient>
				<path style="fill:url(#SVGID_00000022557920910753531370000013892617677790683028_);" d="M2926.517,2105.113
					c0,0,11.561-47.538,6.897-64.403c-4.663-16.865-13.698-38.55-43.815-33.731c-30.117,4.819-65.643,17.505-65.643,17.505
					s1.795,21.968,24.684,14.881l-14.194,10.983c0,0,2.029,17.59,21.363,8.192l-13.201,14.566c0,0,8.303,14.446,22.527,5.18
					C2879.359,2069.02,2886.177,2110.837,2926.517,2105.113z"/>
			</g>
			
				<linearGradient id="SVGID_00000106145742669557196630000017820393222222905497_" gradientUnits="userSpaceOnUse" x1="2881.2341" y1="1587.6133" x2="2940.0552" y2="1809.3234">
				<stop  offset="0" style="stop-color:#FF928E"/>
				<stop  offset="1" style="stop-color:#FEB3B1"/>
			</linearGradient>
			<path style="fill:url(#SVGID_00000106145742669557196630000017820393222222905497_);" d="M2944.153,1638.098l46.137,133.426
				c0.764,2.21-0.144,4.658-2.191,5.789c-12.577,6.954-57.888,27.053-112.492-7.567c-5.688-3.606-9.56-9.489-10.424-16.168
				l-14.941-115.481H2944.153z"/>
			<g>
				
					<linearGradient id="SVGID_00000080166312487138452140000015959723259714175360_" gradientUnits="userSpaceOnUse" x1="2994.855" y1="1406.8105" x2="2822.916" y2="1680.5552">
					<stop  offset="0" style="stop-color:#FF928E"/>
					<stop  offset="1" style="stop-color:#FEB3B1"/>
				</linearGradient>
				<path style="fill:url(#SVGID_00000080166312487138452140000015959723259714175360_);" d="M2843.764,1514.541
					c0,0-50.664,95.369-44.17,133.893c6.494,38.524,69.284,35.758,124.114,4.47l38.315-102.978L2843.764,1514.541z"/>
				
					<linearGradient id="SVGID_00000148618857261476674310000015435594588785479825_" gradientUnits="userSpaceOnUse" x1="-7163.8735" y1="-3399.5071" x2="-7120.0122" y2="-3149.3347" gradientTransform="matrix(-0.746 -0.6659 -0.6659 0.746 -4555.168 -803.1727)">
					<stop  offset="0" style="stop-color:#09005D"/>
					<stop  offset="1" style="stop-color:#1A0F91"/>
				</linearGradient>
				<path style="fill:black;" d="M2921.285,1602.333
					c-2.229-0.987-3.051-3.714-1.716-5.753c4.059-6.201,11.668-18.852,14.095-29.927c0,0,9.108-5.833-23.181-13.562
					c-32.289-7.729-80.44-19.725-90.562-47.209c-9.867-26.796,16.06-94.184,57.423-40.49c1.574,2.043,4.657,2.088,6.228,0.043
					c6.781-8.826,24.608-27.144,49.359-16.039c23.162,10.393,25.771,27.365,25.453,35.92c-0.094,2.517,2.156,4.473,4.63,4.001
					c11.711-2.233,39.813-4.151,52.929,24.677c10.804,23.745,3.782,37.187-2.614,43.76c-2.072,2.13-1.164,5.637,1.677,6.507
					c7.697,2.356,17.635,8.882,16.64,26.913c-1.375,24.928-29.246,22.732-37.181,21.595c-1.3-0.186-2.61,0.26-3.49,1.234
					c-6.804,7.529-37.459,39.499-70.636,43.353c-2.873,0.334-5.099-2.504-4.158-5.238l14.358-41.738
					c0.667-1.938-0.26-4.065-2.135-4.895L2921.285,1602.333z"/>
				
					<linearGradient id="SVGID_00000153682351099391846400000011786555616566697371_" gradientUnits="userSpaceOnUse" x1="3043.2888" y1="1437.2321" x2="2871.3499" y2="1710.9769">
					<stop  offset="0" style="stop-color:#FF928E"/>
					<stop  offset="1" style="stop-color:#FEB3B1"/>
				</linearGradient>
				<path style="fill:url(#SVGID_00000153682351099391846400000011786555616566697371_);" d="M2915.513,1608.257
					c0,0,36.073-24.749,38.709-3.907c2.635,20.842-32.484,30.19-49.879,22.419L2915.513,1608.257z"/>
			</g>
		</g>
	</g>
</g>
</svg>
